<svg width="447" height="571" viewBox="0 0 447 571" fill="none" xmlns="http://www.w3.org/2000/svg">
<path d="M444.017 283.21L115.755 531.912L110.663 41.3768L444.017 283.21Z" fill="black"/>
<ellipse cx="298.898" cy="284.5" rx="117.102" ry="31.5" fill="#943C16"/>
<g filter="url(#filter0_i_18_140)">
<ellipse cx="273.426" cy="284.5" rx="96.0658" ry="31.5" fill="#DCDBD0"/>
<rect x="122" y="253" width="150.883" height="63" fill="#D9D9D9"/>
</g>
<g filter="url(#filter1_i_18_140)">
<ellipse cx="282.914" cy="238.5" rx="102.086" ry="14.5" fill="#DCDBD0"/>
<rect x="122" y="224" width="160.338" height="29" fill="#D9D9D9"/>
</g>
<g filter="url(#filter2_i_18_140)">
<g filter="url(#filter3_i_18_140)">
<ellipse cx="282.914" cy="330.5" rx="102.086" ry="14.5" fill="#DCDBD0"/>
</g>
<rect x="122" y="316" width="160.338" height="29" fill="#D9D9D9"/>
</g>
<g filter="url(#filter4_i_18_140)">
<rect x="97" y="320" width="62" height="25" fill="#D9D9D9"/>
</g>
<g filter="url(#filter5_i_18_140)">
<rect x="97" y="224" width="62" height="25" fill="#D9D9D9"/>
</g>
<g filter="url(#filter6_f_18_140)">
<rect x="122" y="193" width="80" height="184" fill="#D9D9D9"/>
</g>
<g filter="url(#filter7_f_18_140)">
<path d="M202.5 193L241.904 242.5H163.096L202.5 193Z" fill="#D9D9D9"/>
</g>
<g filter="url(#filter8_f_18_140)">
<path d="M201.5 377L162.096 327.5L240.904 327.5L201.5 377Z" fill="#D9D9D9"/>
</g>
<path d="M345 283.5C345 293.993 310.912 302 296 302C281.088 302 320.5 293.993 320.5 283.5C320.5 273.007 281.088 264 296 264C310.912 264 345 273.007 345 283.5Z" fill="black"/>
<path d="M209.875 281H204.938V265H210.094C211.646 265 212.974 265.32 214.078 265.961C215.182 266.596 216.029 267.51 216.617 268.703C217.206 269.891 217.5 271.312 217.5 272.969C217.5 274.635 217.203 276.07 216.609 277.273C216.016 278.471 215.151 279.393 214.016 280.039C212.88 280.68 211.5 281 209.875 281ZM206.875 279.281H209.75C211.073 279.281 212.169 279.026 213.039 278.516C213.909 278.005 214.557 277.279 214.984 276.336C215.411 275.393 215.625 274.271 215.625 272.969C215.625 271.677 215.414 270.565 214.992 269.633C214.57 268.695 213.94 267.977 213.102 267.477C212.263 266.971 211.219 266.719 209.969 266.719H206.875V279.281ZM224.031 281.281C223.271 281.281 222.581 281.138 221.961 280.852C221.341 280.56 220.849 280.141 220.484 279.594C220.12 279.042 219.938 278.375 219.938 277.594C219.938 276.906 220.073 276.349 220.344 275.922C220.615 275.49 220.977 275.151 221.43 274.906C221.883 274.661 222.383 274.479 222.93 274.359C223.482 274.234 224.036 274.135 224.594 274.063C225.323 273.969 225.914 273.898 226.367 273.852C226.826 273.799 227.159 273.714 227.367 273.594C227.581 273.474 227.688 273.266 227.688 272.969V272.906C227.688 272.135 227.477 271.536 227.055 271.109C226.638 270.682 226.005 270.469 225.156 270.469C224.276 270.469 223.586 270.661 223.086 271.047C222.586 271.432 222.234 271.844 222.031 272.281L220.281 271.656C220.594 270.927 221.01 270.359 221.531 269.953C222.057 269.542 222.63 269.255 223.25 269.094C223.875 268.927 224.49 268.844 225.094 268.844C225.479 268.844 225.922 268.891 226.422 268.984C226.927 269.073 227.414 269.258 227.883 269.539C228.357 269.82 228.75 270.245 229.063 270.812C229.375 271.38 229.531 272.141 229.531 273.094V281H227.688V279.375H227.594C227.469 279.635 227.26 279.914 226.969 280.211C226.677 280.508 226.289 280.76 225.805 280.969C225.32 281.177 224.729 281.281 224.031 281.281ZM224.312 279.625C225.042 279.625 225.656 279.482 226.156 279.195C226.661 278.909 227.042 278.539 227.297 278.086C227.557 277.633 227.688 277.156 227.688 276.656V274.969C227.609 275.062 227.438 275.148 227.172 275.227C226.911 275.299 226.609 275.365 226.266 275.422C225.927 275.474 225.596 275.521 225.273 275.562C224.956 275.599 224.698 275.63 224.5 275.656C224.021 275.719 223.573 275.82 223.156 275.961C222.745 276.096 222.411 276.302 222.156 276.578C221.906 276.849 221.781 277.219 221.781 277.687C221.781 278.328 222.018 278.812 222.492 279.141C222.971 279.464 223.578 279.625 224.312 279.625ZM242.279 269L237.842 281H235.967L231.529 269H233.529L236.842 278.562H236.967L240.279 269H242.279ZM244.713 281V269H246.557V281H244.713ZM245.65 267C245.291 267 244.981 266.878 244.721 266.633C244.465 266.388 244.338 266.094 244.338 265.75C244.338 265.406 244.465 265.112 244.721 264.867C244.981 264.622 245.291 264.5 245.65 264.5C246.01 264.5 246.317 264.622 246.572 264.867C246.833 265.112 246.963 265.406 246.963 265.75C246.963 266.094 246.833 266.388 246.572 266.633C246.317 266.878 246.01 267 245.65 267ZM254.465 281.25C253.465 281.25 252.582 280.997 251.816 280.492C251.051 279.982 250.452 279.263 250.02 278.336C249.587 277.404 249.371 276.302 249.371 275.031C249.371 273.771 249.587 272.677 250.02 271.75C250.452 270.823 251.053 270.107 251.824 269.602C252.595 269.096 253.486 268.844 254.496 268.844C255.277 268.844 255.895 268.974 256.348 269.234C256.806 269.49 257.155 269.781 257.395 270.109C257.639 270.432 257.829 270.698 257.965 270.906H258.121V265H259.965V281H258.184V279.156H257.965C257.829 279.375 257.637 279.651 257.387 279.984C257.137 280.312 256.78 280.607 256.316 280.867C255.853 281.122 255.236 281.25 254.465 281.25ZM254.715 279.594C255.454 279.594 256.079 279.401 256.59 279.016C257.1 278.625 257.488 278.086 257.754 277.398C258.02 276.706 258.152 275.906 258.152 275C258.152 274.104 258.022 273.32 257.762 272.648C257.501 271.971 257.116 271.445 256.605 271.07C256.095 270.69 255.465 270.5 254.715 270.5C253.934 270.5 253.283 270.701 252.762 271.102C252.246 271.497 251.858 272.036 251.598 272.719C251.342 273.396 251.215 274.156 251.215 275C251.215 275.854 251.345 276.63 251.605 277.328C251.871 278.021 252.262 278.573 252.777 278.984C253.298 279.391 253.944 279.594 254.715 279.594ZM211.063 292H213V303.437C213 304.458 212.813 305.326 212.438 306.039C212.063 306.753 211.534 307.294 210.852 307.664C210.169 308.034 209.365 308.219 208.438 308.219C207.563 308.219 206.784 308.06 206.102 307.742C205.419 307.419 204.883 306.961 204.492 306.367C204.102 305.773 203.906 305.068 203.906 304.25H205.812C205.812 304.703 205.924 305.099 206.148 305.437C206.378 305.771 206.69 306.031 207.086 306.219C207.482 306.406 207.932 306.5 208.438 306.5C208.995 306.5 209.469 306.383 209.859 306.148C210.25 305.914 210.547 305.57 210.75 305.117C210.958 304.659 211.063 304.099 211.063 303.437V292ZM221.508 308.25C220.424 308.25 219.474 307.992 218.656 307.477C217.844 306.961 217.208 306.24 216.75 305.312C216.297 304.385 216.07 303.302 216.07 302.062C216.07 300.812 216.297 299.721 216.75 298.789C217.208 297.857 217.844 297.133 218.656 296.617C219.474 296.102 220.424 295.844 221.508 295.844C222.591 295.844 223.539 296.102 224.352 296.617C225.169 297.133 225.805 297.857 226.258 298.789C226.716 299.721 226.945 300.812 226.945 302.062C226.945 303.302 226.716 304.385 226.258 305.312C225.805 306.24 225.169 306.961 224.352 307.477C223.539 307.992 222.591 308.25 221.508 308.25ZM221.508 306.594C222.331 306.594 223.008 306.383 223.539 305.961C224.07 305.539 224.464 304.984 224.719 304.297C224.974 303.609 225.102 302.865 225.102 302.062C225.102 301.26 224.974 300.513 224.719 299.82C224.464 299.128 224.07 298.568 223.539 298.141C223.008 297.714 222.331 297.5 221.508 297.5C220.685 297.5 220.008 297.714 219.477 298.141C218.945 298.568 218.552 299.128 218.297 299.82C218.042 300.513 217.914 301.26 217.914 302.062C217.914 302.865 218.042 303.609 218.297 304.297C218.552 304.984 218.945 305.539 219.477 305.961C220.008 306.383 220.685 306.594 221.508 306.594ZM231.604 300.781V308H229.76V296H231.541V297.875H231.697C231.979 297.266 232.406 296.776 232.979 296.406C233.551 296.031 234.291 295.844 235.197 295.844C236.01 295.844 236.721 296.01 237.33 296.344C237.939 296.672 238.413 297.172 238.752 297.844C239.09 298.51 239.26 299.354 239.26 300.375V308H237.416V300.5C237.416 299.557 237.171 298.823 236.682 298.297C236.192 297.766 235.52 297.5 234.666 297.5C234.077 297.5 233.551 297.628 233.088 297.883C232.63 298.138 232.268 298.51 232.002 299C231.736 299.49 231.604 300.083 231.604 300.781ZM247.66 308.25C246.504 308.25 245.507 307.995 244.668 307.484C243.835 306.969 243.191 306.25 242.738 305.328C242.29 304.401 242.066 303.323 242.066 302.094C242.066 300.865 242.29 299.781 242.738 298.844C243.191 297.901 243.822 297.167 244.629 296.641C245.441 296.109 246.389 295.844 247.473 295.844C248.098 295.844 248.715 295.948 249.324 296.156C249.934 296.365 250.488 296.703 250.988 297.172C251.488 297.635 251.887 298.25 252.184 299.016C252.48 299.781 252.629 300.724 252.629 301.844V302.625H243.379V301.031H250.754C250.754 300.354 250.618 299.75 250.348 299.219C250.082 298.687 249.702 298.268 249.207 297.961C248.717 297.654 248.139 297.5 247.473 297.5C246.738 297.5 246.103 297.682 245.566 298.047C245.035 298.406 244.626 298.875 244.34 299.453C244.053 300.031 243.91 300.651 243.91 301.312V302.375C243.91 303.281 244.066 304.049 244.379 304.68C244.697 305.305 245.137 305.781 245.699 306.109C246.262 306.432 246.915 306.594 247.66 306.594C248.145 306.594 248.582 306.526 248.973 306.391C249.368 306.25 249.71 306.042 249.996 305.766C250.283 305.484 250.504 305.135 250.66 304.719L252.441 305.219C252.254 305.823 251.939 306.354 251.496 306.812C251.053 307.266 250.507 307.62 249.855 307.875C249.204 308.125 248.473 308.25 247.66 308.25ZM263.934 298.687L262.277 299.156C262.173 298.88 262.02 298.612 261.816 298.352C261.618 298.086 261.348 297.867 261.004 297.695C260.66 297.523 260.22 297.437 259.684 297.437C258.949 297.437 258.337 297.607 257.848 297.945C257.363 298.279 257.121 298.703 257.121 299.219C257.121 299.677 257.288 300.039 257.621 300.305C257.954 300.57 258.475 300.792 259.184 300.969L260.965 301.406C262.038 301.667 262.837 302.065 263.363 302.602C263.889 303.133 264.152 303.818 264.152 304.656C264.152 305.344 263.954 305.958 263.559 306.5C263.168 307.042 262.621 307.469 261.918 307.781C261.215 308.094 260.397 308.25 259.465 308.25C258.241 308.25 257.228 307.984 256.426 307.453C255.624 306.922 255.116 306.146 254.902 305.125L256.652 304.687C256.819 305.333 257.134 305.818 257.598 306.141C258.066 306.464 258.678 306.625 259.434 306.625C260.293 306.625 260.975 306.443 261.48 306.078C261.991 305.708 262.246 305.266 262.246 304.75C262.246 304.333 262.1 303.984 261.809 303.703C261.517 303.417 261.069 303.203 260.465 303.062L258.465 302.594C257.366 302.333 256.559 301.93 256.043 301.383C255.533 300.831 255.277 300.141 255.277 299.312C255.277 298.635 255.467 298.036 255.848 297.516C256.233 296.995 256.757 296.586 257.418 296.289C258.085 295.992 258.84 295.844 259.684 295.844C260.871 295.844 261.803 296.104 262.48 296.625C263.163 297.146 263.647 297.833 263.934 298.687Z" fill="black"/>
<g clip-path="url(#clip0_18_140)">
<path d="M64.9383 218.68L37.8624 221.15L42.4639 227.01L25.0693 238.5L60.5 241.605L95.9307 238.5C95.9307 227.466 83.6106 218.521 68.4131 218.521C67.2361 218.521 66.0764 218.575 64.9383 218.68Z" fill="#FF7040"/>
<path d="M42.4639 249.99L37.8624 255.85L64.9383 258.32C66.0909 258.426 67.2514 258.479 68.4131 258.479C83.6106 258.479 95.9307 249.534 95.9307 238.5L25.0693 238.5L42.4639 249.99Z" fill="#FF903D"/>
<path d="M65.4717 221.761L44.7504 223.652L47.8767 227.633L31.4252 238.5L91.6533 238.5C91.6533 229.196 81.2277 221.627 68.4131 221.627C67.4316 221.627 66.4424 221.672 65.4717 221.761Z" fill="#FF3744"/>
<path d="M65.4717 224.842L49.1037 226.06L50.5831 227.944L31.4252 238.5L60.5 244.711L91.6533 238.5C91.6533 230.909 81.2277 224.732 68.4131 224.732C67.4316 224.732 66.4424 224.769 65.4717 224.842Z" fill="#FF4F42"/>
<path d="M47.8767 249.367L44.7504 253.348L65.473 255.239C66.4482 255.328 67.4302 255.373 68.4131 255.373C81.2277 255.373 91.6533 247.804 91.6533 238.5L31.4252 238.5L47.8767 249.367Z" fill="#FF7040"/>
<path d="M59.5369 230.006L44.137 238.5L83.0986 238.5C83.0986 232.612 76.5236 227.838 68.4131 227.838C65.0776 227.838 62.0025 228.646 59.5369 230.006Z" fill="#FFC46C"/>
<path d="M68.4131 230.943C65.0776 230.943 62.0025 231.516 59.5369 232.48L44.137 238.5L59.5369 246.994C62.0025 248.354 65.0776 249.162 68.4131 249.162C76.5236 249.162 83.0986 244.388 83.0986 238.5C83.0986 234.327 76.5236 230.943 68.4131 230.943Z" fill="#FFD89D"/>
<path d="M37.7292 220.38C37.5546 220.396 37.3882 220.443 37.2447 220.517C37.1011 220.59 36.9848 220.689 36.9062 220.803C36.8275 220.917 36.7888 221.044 36.7936 221.171C36.7984 221.299 36.8465 221.424 36.9336 221.535L41.1107 226.854L24.3498 237.926C24.2396 237.998 24.1516 238.087 24.0914 238.186C24.0312 238.285 24.0001 238.392 24.0001 238.5C24.0001 238.608 24.0312 238.715 24.0914 238.814C24.1516 238.913 24.2396 239.001 24.3498 239.074L41.1107 250.146L36.9334 255.465C36.8463 255.576 36.7982 255.701 36.7935 255.829C36.7887 255.956 36.8273 256.083 36.906 256.197C36.9847 256.311 37.101 256.41 37.2445 256.483C37.3881 256.557 37.5545 256.604 37.729 256.62L64.8046 259.091C66.0016 259.2 67.2067 259.255 68.4131 259.255C84.176 259.255 97 249.944 97 238.5C97 227.056 84.176 217.745 68.4131 217.745C67.2089 217.745 65.9948 217.8 64.8049 217.909L37.7292 220.38ZM94.8613 238.5C94.8613 249.088 82.9967 257.702 68.4131 257.702C67.298 257.702 66.1738 257.651 65.0716 257.55L39.5844 255.224L43.3928 250.375C43.5131 250.221 43.558 250.043 43.5199 249.869C43.4819 249.694 43.3632 249.535 43.1835 249.416L26.6584 238.5L43.1836 227.584C43.3634 227.465 43.4821 227.306 43.5201 227.131C43.5582 226.957 43.5133 226.779 43.3929 226.625L39.5845 221.775L65.0721 219.45C66.1803 219.349 67.2963 219.298 68.4132 219.298C82.9967 219.298 94.8613 227.912 94.8613 238.5Z" fill="black"/>
<path d="M56.5621 230.672C56.3375 230.797 56.1903 230.981 56.1525 231.185C56.1148 231.388 56.1897 231.594 56.3608 231.758C56.532 231.921 56.7854 232.029 57.0656 232.057C57.3458 232.085 57.63 232.032 57.8559 231.908L60.1839 230.624C62.5672 229.309 65.4129 228.614 68.4131 228.614C75.9211 228.614 82.0293 233.049 82.0293 238.5C82.0293 243.951 75.9211 248.386 68.4131 248.386C65.4128 248.386 62.5672 247.691 60.1838 246.376L45.9047 238.5L54.4309 233.797C54.5433 233.736 54.6379 233.659 54.7092 233.571C54.7805 233.482 54.8272 233.385 54.8465 233.284C54.8658 233.182 54.8574 233.079 54.8218 232.981C54.7861 232.882 54.7239 232.789 54.6388 232.708C54.5536 232.626 54.4472 232.558 54.3255 232.506C54.2039 232.455 54.0694 232.421 53.9299 232.408C53.7904 232.394 53.6485 232.401 53.5125 232.427C53.3764 232.453 53.2489 232.499 53.1371 232.561L43.4901 237.882C43.3588 237.954 43.2523 238.048 43.179 238.155C43.1057 238.262 43.0675 238.38 43.0675 238.5C43.0675 238.62 43.1057 238.738 43.179 238.845C43.2523 238.952 43.3588 239.046 43.4901 239.118L58.89 247.612C61.6486 249.134 64.9416 249.938 68.4131 249.938C77.1004 249.938 84.168 244.807 84.168 238.5C84.168 232.193 77.1004 227.062 68.4131 227.062C64.9416 227.062 61.6486 227.866 58.89 229.388L56.5621 230.672Z" fill="black"/>
</g>
<g clip-path="url(#clip1_18_140)">
<g clip-path="url(#clip2_18_140)">
<path d="M64.9383 314.68L37.8624 317.15L42.4639 323.01L25.0693 334.5L60.5 337.605L95.9307 334.5C95.9307 323.466 83.6106 314.521 68.4131 314.521C67.2361 314.521 66.0764 314.575 64.9383 314.68Z" fill="#FF7040"/>
<path d="M42.4639 345.99L37.8624 351.85L64.9383 354.32C66.0909 354.426 67.2514 354.479 68.4131 354.479C83.6106 354.479 95.9307 345.534 95.9307 334.5L25.0693 334.5L42.4639 345.99Z" fill="#FF903D"/>
<path d="M65.4717 317.761L44.7504 319.652L47.8767 323.633L31.4252 334.5L91.6533 334.5C91.6533 325.196 81.2277 317.627 68.4131 317.627C67.4316 317.627 66.4424 317.672 65.4717 317.761Z" fill="#FF3744"/>
<path d="M65.4717 320.842L49.1037 322.06L50.5831 323.944L31.4252 334.5L60.5 340.711L91.6533 334.5C91.6533 326.909 81.2277 320.732 68.4131 320.732C67.4316 320.732 66.4424 320.769 65.4717 320.842Z" fill="#FF4F42"/>
<path d="M47.8767 345.367L44.7504 349.348L65.473 351.239C66.4482 351.328 67.4302 351.373 68.4131 351.373C81.2277 351.373 91.6533 343.804 91.6533 334.5L31.4252 334.5L47.8767 345.367Z" fill="#FF7040"/>
<path d="M59.5369 326.006L44.137 334.5L83.0986 334.5C83.0986 328.612 76.5236 323.838 68.4131 323.838C65.0776 323.838 62.0025 324.646 59.5369 326.006Z" fill="#FFC46C"/>
<path d="M68.4131 326.943C65.0776 326.943 62.0025 327.516 59.5369 328.48L44.137 334.5L59.5369 342.994C62.0025 344.354 65.0776 345.162 68.4131 345.162C76.5236 345.162 83.0986 340.388 83.0986 334.5C83.0986 330.327 76.5236 326.943 68.4131 326.943Z" fill="#FFD89D"/>
<path d="M37.7292 316.38C37.5546 316.396 37.3882 316.443 37.2447 316.517C37.1011 316.59 36.9848 316.689 36.9062 316.803C36.8275 316.917 36.7888 317.044 36.7936 317.171C36.7984 317.299 36.8465 317.424 36.9336 317.535L41.1107 322.854L24.3498 333.926C24.2396 333.998 24.1516 334.087 24.0914 334.186C24.0312 334.285 24.0001 334.392 24.0001 334.5C24.0001 334.608 24.0312 334.715 24.0914 334.814C24.1516 334.913 24.2396 335.001 24.3498 335.074L41.1107 346.146L36.9334 351.465C36.8463 351.576 36.7982 351.701 36.7935 351.829C36.7887 351.956 36.8273 352.083 36.906 352.197C36.9847 352.311 37.101 352.41 37.2445 352.483C37.3881 352.557 37.5545 352.604 37.729 352.62L64.8046 355.091C66.0016 355.2 67.2067 355.255 68.4131 355.255C84.176 355.255 97 345.944 97 334.5C97 323.056 84.176 313.745 68.4131 313.745C67.2089 313.745 65.9948 313.8 64.8049 313.909L37.7292 316.38ZM94.8613 334.5C94.8613 345.088 82.9967 353.702 68.4131 353.702C67.298 353.702 66.1738 353.651 65.0716 353.55L39.5844 351.224L43.3928 346.375C43.5131 346.221 43.558 346.043 43.5199 345.869C43.4819 345.694 43.3632 345.535 43.1835 345.416L26.6584 334.5L43.1836 323.584C43.3634 323.465 43.4821 323.306 43.5201 323.131C43.5582 322.957 43.5133 322.779 43.3929 322.625L39.5845 317.775L65.0721 315.45C66.1803 315.349 67.2963 315.298 68.4132 315.298C82.9967 315.298 94.8613 323.912 94.8613 334.5Z" fill="black"/>
<path d="M56.5621 326.672C56.3375 326.797 56.1903 326.981 56.1525 327.185C56.1148 327.388 56.1897 327.594 56.3608 327.758C56.532 327.921 56.7854 328.029 57.0656 328.057C57.3458 328.085 57.63 328.032 57.8559 327.908L60.1839 326.624C62.5672 325.309 65.4129 324.614 68.4131 324.614C75.9211 324.614 82.0293 329.049 82.0293 334.5C82.0293 339.951 75.9211 344.386 68.4131 344.386C65.4128 344.386 62.5672 343.691 60.1838 342.376L45.9047 334.5L54.4309 329.797C54.5433 329.736 54.6379 329.659 54.7092 329.571C54.7805 329.482 54.8272 329.385 54.8465 329.284C54.8658 329.182 54.8574 329.079 54.8218 328.981C54.7861 328.882 54.7239 328.789 54.6388 328.708C54.5536 328.626 54.4472 328.558 54.3255 328.506C54.2039 328.455 54.0694 328.421 53.9299 328.408C53.7904 328.394 53.6485 328.401 53.5125 328.427C53.3764 328.453 53.2489 328.499 53.1371 328.561L43.4901 333.882C43.3588 333.954 43.2523 334.048 43.179 334.155C43.1057 334.262 43.0675 334.38 43.0675 334.5C43.0675 334.62 43.1057 334.738 43.179 334.845C43.2523 334.952 43.3588 335.046 43.4901 335.118L58.89 343.612C61.6486 345.134 64.9416 345.938 68.4131 345.938C77.1004 345.938 84.168 340.807 84.168 334.5C84.168 328.193 77.1004 323.062 68.4131 323.062C64.9416 323.062 61.6486 323.866 58.89 325.388L56.5621 326.672Z" fill="black"/>
</g>
</g>
<defs>
<filter id="filter0_i_18_140" x="122" y="253" width="247.492" height="67" filterUnits="userSpaceOnUse" color-interpolation-filters="sRGB">
<feFlood flood-opacity="0" result="BackgroundImageFix"/>
<feBlend mode="normal" in="SourceGraphic" in2="BackgroundImageFix" result="shape"/>
<feColorMatrix in="SourceAlpha" type="matrix" values="0 0 0 0 0 0 0 0 0 0 0 0 0 0 0 0 0 0 127 0" result="hardAlpha"/>
<feOffset dy="4"/>
<feGaussianBlur stdDeviation="2"/>
<feComposite in2="hardAlpha" operator="arithmetic" k2="-1" k3="1"/>
<feColorMatrix type="matrix" values="0 0 0 0 0 0 0 0 0 0 0 0 0 0 0 0 0 0 0.25 0"/>
<feBlend mode="normal" in2="shape" result="effect1_innerShadow_18_140"/>
</filter>
<filter id="filter1_i_18_140" x="122" y="224" width="263" height="33" filterUnits="userSpaceOnUse" color-interpolation-filters="sRGB">
<feFlood flood-opacity="0" result="BackgroundImageFix"/>
<feBlend mode="normal" in="SourceGraphic" in2="BackgroundImageFix" result="shape"/>
<feColorMatrix in="SourceAlpha" type="matrix" values="0 0 0 0 0 0 0 0 0 0 0 0 0 0 0 0 0 0 127 0" result="hardAlpha"/>
<feOffset dy="4"/>
<feGaussianBlur stdDeviation="2"/>
<feComposite in2="hardAlpha" operator="arithmetic" k2="-1" k3="1"/>
<feColorMatrix type="matrix" values="0 0 0 0 0 0 0 0 0 0 0 0 0 0 0 0 0 0 0.25 0"/>
<feBlend mode="normal" in2="shape" result="effect1_innerShadow_18_140"/>
</filter>
<filter id="filter2_i_18_140" x="122" y="316" width="263" height="33" filterUnits="userSpaceOnUse" color-interpolation-filters="sRGB">
<feFlood flood-opacity="0" result="BackgroundImageFix"/>
<feBlend mode="normal" in="SourceGraphic" in2="BackgroundImageFix" result="shape"/>
<feColorMatrix in="SourceAlpha" type="matrix" values="0 0 0 0 0 0 0 0 0 0 0 0 0 0 0 0 0 0 127 0" result="hardAlpha"/>
<feOffset dy="4"/>
<feGaussianBlur stdDeviation="2"/>
<feComposite in2="hardAlpha" operator="arithmetic" k2="-1" k3="1"/>
<feColorMatrix type="matrix" values="0 0 0 0 0 0 0 0 0 0 0 0 0 0 0 0 0 0 0.25 0"/>
<feBlend mode="normal" in2="shape" result="effect1_innerShadow_18_140"/>
</filter>
<filter id="filter3_i_18_140" x="180.829" y="316" width="204.171" height="33" filterUnits="userSpaceOnUse" color-interpolation-filters="sRGB">
<feFlood flood-opacity="0" result="BackgroundImageFix"/>
<feBlend mode="normal" in="SourceGraphic" in2="BackgroundImageFix" result="shape"/>
<feColorMatrix in="SourceAlpha" type="matrix" values="0 0 0 0 0 0 0 0 0 0 0 0 0 0 0 0 0 0 127 0" result="hardAlpha"/>
<feOffset dy="4"/>
<feGaussianBlur stdDeviation="2"/>
<feComposite in2="hardAlpha" operator="arithmetic" k2="-1" k3="1"/>
<feColorMatrix type="matrix" values="0 0 0 0 0 0 0 0 0 0 0 0 0 0 0 0 0 0 0.25 0"/>
<feBlend mode="normal" in2="shape" result="effect1_innerShadow_18_140"/>
</filter>
<filter id="filter4_i_18_140" x="97" y="320" width="62" height="29" filterUnits="userSpaceOnUse" color-interpolation-filters="sRGB">
<feFlood flood-opacity="0" result="BackgroundImageFix"/>
<feBlend mode="normal" in="SourceGraphic" in2="BackgroundImageFix" result="shape"/>
<feColorMatrix in="SourceAlpha" type="matrix" values="0 0 0 0 0 0 0 0 0 0 0 0 0 0 0 0 0 0 127 0" result="hardAlpha"/>
<feOffset dy="4"/>
<feGaussianBlur stdDeviation="2"/>
<feComposite in2="hardAlpha" operator="arithmetic" k2="-1" k3="1"/>
<feColorMatrix type="matrix" values="0 0 0 0 0 0 0 0 0 0 0 0 0 0 0 0 0 0 0.25 0"/>
<feBlend mode="normal" in2="shape" result="effect1_innerShadow_18_140"/>
</filter>
<filter id="filter5_i_18_140" x="97" y="224" width="62" height="29" filterUnits="userSpaceOnUse" color-interpolation-filters="sRGB">
<feFlood flood-opacity="0" result="BackgroundImageFix"/>
<feBlend mode="normal" in="SourceGraphic" in2="BackgroundImageFix" result="shape"/>
<feColorMatrix in="SourceAlpha" type="matrix" values="0 0 0 0 0 0 0 0 0 0 0 0 0 0 0 0 0 0 127 0" result="hardAlpha"/>
<feOffset dy="4"/>
<feGaussianBlur stdDeviation="2"/>
<feComposite in2="hardAlpha" operator="arithmetic" k2="-1" k3="1"/>
<feColorMatrix type="matrix" values="0 0 0 0 0 0 0 0 0 0 0 0 0 0 0 0 0 0 0.25 0"/>
<feBlend mode="normal" in2="shape" result="effect1_innerShadow_18_140"/>
</filter>
<filter id="filter6_f_18_140" x="118" y="189" width="88" height="192" filterUnits="userSpaceOnUse" color-interpolation-filters="sRGB">
<feFlood flood-opacity="0" result="BackgroundImageFix"/>
<feBlend mode="normal" in="SourceGraphic" in2="BackgroundImageFix" result="shape"/>
<feGaussianBlur stdDeviation="2" result="effect1_foregroundBlur_18_140"/>
</filter>
<filter id="filter7_f_18_140" x="159.096" y="189" width="86.8083" height="57.5" filterUnits="userSpaceOnUse" color-interpolation-filters="sRGB">
<feFlood flood-opacity="0" result="BackgroundImageFix"/>
<feBlend mode="normal" in="SourceGraphic" in2="BackgroundImageFix" result="shape"/>
<feGaussianBlur stdDeviation="2" result="effect1_foregroundBlur_18_140"/>
</filter>
<filter id="filter8_f_18_140" x="158.096" y="323.5" width="86.8083" height="57.5" filterUnits="userSpaceOnUse" color-interpolation-filters="sRGB">
<feFlood flood-opacity="0" result="BackgroundImageFix"/>
<feBlend mode="normal" in="SourceGraphic" in2="BackgroundImageFix" result="shape"/>
<feGaussianBlur stdDeviation="2" result="effect1_foregroundBlur_18_140"/>
</filter>
<clipPath id="clip0_18_140">
<rect width="53" height="73" fill="white" transform="translate(24 265) rotate(-90)"/>
</clipPath>
<clipPath id="clip1_18_140">
<rect width="53" height="73" fill="white" transform="translate(24 361) rotate(-90)"/>
</clipPath>
<clipPath id="clip2_18_140">
<rect width="53" height="73" fill="white" transform="translate(24 361) rotate(-90)"/>
</clipPath>
</defs>
</svg>
